<svg width="23.332458" height="23.332520" viewBox="0 0 23.3325 23.3325" fill="none" xmlns="http://www.w3.org/2000/svg" xmlns:xlink="http://www.w3.org/1999/xlink">
	<desc>
			Created with Pixso.
	</desc>
	<defs/>
	<path id="Dribbble" d="M11.66 0C5.24 0 0 5.24 0 11.66C0 18.08 5.24 23.33 11.66 23.33C18.08 23.33 23.33 18.08 23.33 11.66C23.33 5.24 18.08 0 11.66 0ZM21.29 11.08C18.76 10.69 16.52 10.69 14.38 10.98C14.19 10.4 13.9 9.91 13.61 9.33C15.84 8.36 17.69 6.99 18.95 5.34C20.31 6.99 21.19 8.94 21.29 11.08ZM17.49 4.08C16.33 5.63 14.68 6.8 12.63 7.68C11.66 5.83 10.59 4.08 9.33 2.33C10.11 2.13 10.88 2.04 11.66 2.04C13.9 2.04 15.94 2.81 17.49 4.08ZM7.29 3.11C8.55 4.76 9.72 6.51 10.69 8.36C8.36 9.04 5.54 9.33 2.33 9.43C3.01 6.61 4.86 4.37 7.29 3.11ZM2.04 11.66L2.04 11.37C5.73 11.37 9.04 10.98 11.66 10.11C11.86 10.59 12.15 11.08 12.34 11.47C9.04 12.54 6.31 14.58 4.27 17.79C2.91 16.13 2.04 13.99 2.04 11.66ZM5.73 19.24C7.68 16.23 10.11 14.29 13.12 13.41C13.99 15.74 14.68 18.17 15.06 20.7C11.86 21.87 8.36 21.29 5.73 19.24ZM17.01 19.63C16.62 17.3 15.94 15.06 15.16 12.93C17.01 12.63 18.95 12.73 21.19 13.12C20.7 15.84 19.24 18.17 17.01 19.63Z" fill="#FFFFFF" fill-opacity="1.000000" fill-rule="nonzero"/>
</svg>
