<svg width="136.000000" height="45.000000" viewBox="0 0 136 45" fill="none" xmlns="http://www.w3.org/2000/svg" xmlns:xlink="http://www.w3.org/1999/xlink">
	<desc>
			Created with Pixso.
	</desc>
	<defs/>
	<path id="RRF" d="M31.93 33L27.98 33L27.98 11.18L41.96 11.18L41.96 14.49L31.93 14.49L31.93 20.41L41 20.41L41 23.73L31.93 23.73L31.93 33Z" fill="#FC3314" fill-opacity="1.000000" fill-rule="evenodd"/>
	<path id="RRF" d="M6.1 33L2.15 33L2.15 11.18L10.33 11.18C12.26 11.18 13.85 11.59 15.07 12.35L15.07 11.18L23.25 11.18C28.26 11.18 30.94 13.99 30.94 18.16C30.94 21.12 29.58 23.31 27.02 24.35L31.74 33L27.33 33L23.04 25L19.01 25L19.01 33L14.41 33L10.12 25L6.1 25L6.1 33ZM15.07 26.11L15.07 23.87C14.77 24.05 14.44 24.21 14.1 24.35L15.07 26.11ZM6.1 14.48L6.1 21.72L9.74 21.72C12.67 21.72 13.99 20.48 13.99 18.16C13.99 15.83 12.67 14.48 9.72 14.48L6.1 14.48ZM19.01 14.48L19.01 21.72L22.66 21.72C25.59 21.72 26.91 20.48 26.91 18.16C26.91 15.83 25.59 14.48 22.64 14.48L19.01 14.48Z" fill="#1F1F1F" fill-opacity="1.000000" fill-rule="evenodd"/>
	<path id="EXAM" d="M64.42 33L50.15 33L50.15 11.18L64.34 11.18L64.34 14.49L54.1 14.49L54.1 20.41L63.6 20.41L63.6 23.73L54.1 23.73L54.1 29.68L64.42 29.68L64.42 33ZM67.15 11.18L71.68 11.18L76.48 19.17L76.65 19.17L81.48 11.18L85.98 11.18L79.26 22.09L86.09 33L81.51 33L76.65 25.06L76.48 25.06L71.62 33L67.07 33L73.96 22.09L67.15 11.18ZM93.69 27.61L91.88 33L87.67 33L95.35 11.18L100.23 11.18L107.92 33L103.7 33L101.89 27.61L93.69 27.61ZM110.8 33L110.8 11.18L115.63 11.18L122.11 26.99L122.36 26.99L128.85 11.18L133.68 11.18L133.68 33L129.89 33L129.89 18L129.69 18L123.65 32.93L120.83 32.93L114.79 17.97L114.59 17.97L114.59 33L110.8 33ZM97.71 15.65L94.76 24.44L100.83 24.44L97.88 15.65L97.71 15.65Z" fill="#FC3314" fill-opacity="1.000000" fill-rule="evenodd"/>
</svg>
