<svg width="47.977783" height="53.970215" viewBox="0 0 47.9778 53.9702" fill="none" xmlns="http://www.w3.org/2000/svg" xmlns:xlink="http://www.w3.org/1999/xlink">
	<desc>
			Created with Pixso.
	</desc>
	<defs/>
	<path id="Vector" d="M24.1 53.89C24.1 53.89 24.1 53.9 24.1 53.9C24.09 53.92 24.08 53.94 24.06 53.95C24.04 53.96 24.01 53.97 23.99 53.97C23.96 53.97 23.94 53.96 23.91 53.95C23.89 53.94 23.88 53.92 23.87 53.9C23.87 53.9 23.87 53.89 23.87 53.89C23.87 53.87 23.87 53.85 23.87 53.82C23.84 53.19 23.8 52.58 23.77 51.98C23.56 48.25 23.33 45.1 22.98 42.45C21.68 32.38 18.8 29.36 9.68 27.98C7.5 27.65 4.95 27.41 1.98 27.2C1.38 27.15 0.75 27.11 0.11 27.06C0.11 27.06 0.1 27.06 0.1 27.06C0.09 27.06 0.09 27.06 0.08 27.06C0.06 27.06 0.04 27.05 0.02 27.03C0 27.02 0 27 0 26.98C0 26.96 0 26.94 0.02 26.93C0.04 26.91 0.06 26.9 0.08 26.9C0.09 26.9 0.09 26.9 0.1 26.9C0.1 26.9 0.11 26.9 0.11 26.9C0.75 26.85 1.38 26.81 1.98 26.77C4.95 26.55 7.5 26.31 9.68 25.98C18.8 24.6 21.68 21.58 22.98 11.51C23.33 8.86 23.56 5.72 23.77 1.98C23.8 1.38 23.84 0.77 23.87 0.14C23.87 0.11 23.87 0.09 23.87 0.07C23.87 0.07 23.87 0.06 23.87 0.06C23.88 0.04 23.89 0.02 23.91 0.01C23.94 0 23.96 0 23.99 0C24.01 0 24.04 0 24.06 0.01C24.08 0.02 24.09 0.04 24.1 0.06C24.1 0.06 24.1 0.07 24.1 0.07C24.1 0.09 24.1 0.11 24.11 0.14C24.14 0.77 24.17 1.38 24.2 1.98C24.41 5.72 24.65 8.86 24.99 11.51C26.29 21.58 29.16 24.6 38.28 25.98C40.47 26.31 43.02 26.55 45.98 26.77C46.59 26.81 47.21 26.85 47.85 26.9C47.86 26.9 47.87 26.9 47.87 26.9C47.88 26.9 47.88 26.9 47.88 26.9C47.91 26.9 47.93 26.91 47.95 26.93C47.96 26.94 47.97 26.96 47.97 26.98C47.97 27 47.96 27.02 47.95 27.03C47.93 27.05 47.91 27.06 47.88 27.06C47.88 27.06 47.88 27.06 47.87 27.06C47.87 27.06 47.86 27.06 47.85 27.06C47.21 27.11 46.59 27.15 45.98 27.2C43.02 27.41 40.47 27.65 38.28 27.98C29.16 29.36 26.29 32.38 24.99 42.45C24.65 45.1 24.41 48.25 24.2 51.98C24.17 52.58 24.14 53.19 24.11 53.82C24.1 53.85 24.1 53.87 24.1 53.89ZM23.99 37.01Q25.08 33 27.1 30.75Q29.33 28.24 33.46 26.98Q29.33 25.72 27.1 23.21Q25.08 20.96 23.99 16.95Q22.88 20.96 20.87 23.21Q18.63 25.72 14.51 26.98Q18.63 28.24 20.87 30.75Q22.88 33 23.99 37.01Z" fill="#FC3314" fill-opacity="1.000000" fill-rule="evenodd"/>
</svg>
